# AST/ASF file generated using VICON BodyLanguage
# -----------------------------------------------
:version 1.10
:name VICON
:units
  mass 1.0
  length 0.45
  angle deg
:documentation
   .ast/.asf automatically generated from VICON data using
   VICON BodyBuilder and BodyLanguage model FoxedUp or BRILLIANT.MOD
:root
   order TX TY TZ RX RY RZ
   axis XYZ
   position 0 0 0  
   orientation 0 0 0 
:bonedata
  begin
     id 1 
     name lhipjoint
     direction 0.558404 -0.748506 0.357664 
     length 2.4234 
     axis 0 0 0  XYZ
  end
  begin
     id 2 
     name lfemur
     direction 0.34202 -0.939693 0  
     length 7.14567  
     axis 0 0 20  XYZ
    dof rx ry rz
    limits (-160.0 20.0)
           (-70.0 70.0)
           (-60.0 70.0)
  end
  begin
     id 3 
     name ltibia
     direction 0.34202 -0.939693 0   
     length 8.13956   
     axis 0 0 20   XYZ
    dof rx
    limits (-10.0 170.0)
  end
  begin
     id 4 
     name lfoot
     direction 0.0791314 -0.217412 0.972867   
     length 2.00134   
     axis -90 7.62852e-016 20   XYZ
    dof rx rz
    limits (-45.0 90.0)
           (-70.0 20.0)
  end
  begin
     id 5 
     name ltoes
     direction 1.53547e-011 -4.21922e-011 1   
     length 1.00735   
     axis -90 7.62852e-016 20   XYZ
    dof rx
    limits (-90.0 20.0)
  end
  begin
     id 6 
     name rhipjoint
     direction -0.496392 -0.78327 0.374276   
     length 2.31584  
     axis 0 0 0  XYZ 
  end
  begin
     id 7 
     name rfemur
     direction -0.34202 -0.939693 0   
     length 7.47417   
     axis 0 0 -20   XYZ
    dof rx ry rz
    limits (-160.0 20.0)
           (-70.0 70.0)
           (-70.0 60.0)
  end
  begin
     id 8 
     name rtibia
     direction -0.34202 -0.939693 0   
     length 7.69071   
     axis 0 0 -20   XYZ
    dof rx
    limits (-10.0 170.0)
 end
 begin
     id 9 
     name rfoot
     direction -0.103069 -0.28318 0.953512   
     length 2.16135  
     axis -90 -7.62852e-016 -20   XYZ
    dof rx rz
    limits (-45.0 90.0)
           (-20.0 70.0)
  end
  begin
     id 10 
     name rtoes
     direction -1.53581e-011 -4.21904e-011 1   
     length 1.07867   
     axis -90 -7.62852e-016 -20   XYZ
    dof rx
    limits (-90.0 20.0)
  end
  begin
     id 11 
     name lowerback
     direction -0.0258961 0.994776 -0.0987407   
     length 2.19412   
     axis 0 0 0   XYZ
    dof rx ry rz
    limits (-20.0 45.0)
           (-30.0 30.0)
           (-30.0 30.0)
  end
  begin
     id 12 
     name upperback
     direction 0.0402454 0.999185 0.00320666   
     length 2.18445   
     axis 0 0 0   XYZ
    dof rx ry rz
    limits (-20.0 45.0)
           (-30.0 30.0)
           (-30.0 30.0)
  end
  begin
     id 13 
     name thorax
     direction 0.0519376 0.997415 0.0496558   
     length 2.21487   
     axis 0 0 0   XYZ
    dof rx ry rz
    limits (-20.0 45.0)
           (-30.0 30.0)
           (-30.0 30.0)
  end
  begin
     id 14 
     name lowerneck
     direction -0.0921276 0.983211 0.157506   
     length 1.61201   
     axis 0 0 0   XYZ
    dof rx ry rz
    limits (-20.0 45.0)
           (-30.0 30.0)
           (-30.0 30.0)
  end
  begin
     id 15 
     name upperneck
     direction 0.0820814 0.98162 -0.172292   
     length 1.65275   
     axis 0 0 0   XYZ
    dof rx ry rz
    limits (-20.0 45.0)
           (-30.0 30.0)
           (-30.0 30.0)
  end
  begin
     id 16
     name head
     direction 0.0336554 0.996413 -0.0776455  
     length 1.66415  
     axis 0 0 0   XYZ
    dof rx ry rz
    limits (-20.0 45.0)
           (-30.0 30.0)
           (-30.0 30.0)
  end
  begin
     id 17 
     name lclavicle
     direction 0.94696 0.284418 -0.149576  
     length 3.41447  
     axis 0 0 0   XYZ
    dof ry rz
    limits (-20.0 10.0)
           (0.0 20.0)
  end
  begin
     id 18 
     name lhumerus
     direction 1 -0.000130264 -9.81312e-005   
     length 5.19964   
     axis 180 -30 -90   XYZ
    dof rx ry rz
    limits (-60.0 90.0)
           (-90.0 90.0)
           (-90.0 90.0)
  end
  begin
     id 19
     name lradius
     direction 1 -4.48961e-011 1.43854e-026   
     length 3.32189   
     axis 180 -30 -90   XYZ
    dof rx
    limits (-10.0 170.0)
  end
  begin
     id 20
     name lwrist
     direction 1 -4.48958e-011 3.1502e-026   
     length 1.66095   
     axis -1.97692e-014 90 90   XYZ
    dof ry
    limits (-180.0 0.0)
 end
  begin
     id 21 
     name lhand
     direction 1 -4.48927e-011 6.3004e-026   
     length 0.645616   
     axis -4.02019e-014 90 90   XYZ
    dof rx rz
    limits (-90.0 90.0)
           (-45.0 45.0)
  end
  begin
     id 22 
     name lfingers
     direction 1 -4.4904e-011 1.26008e-025   
     length 0.520512   
     axis -8.04039e-014 90 90   XYZ
    dof rx
    limits (0.0 90.0)
  end
  begin
     id 23
     name lthumb
     direction 0.707107 -6.34947e-011 0.707107   
     length 0.747354   
     axis -90 45 2.85299e-015   XYZ
    dof rx rz
    limits (-45.0 45.0)
           (-45.0 45.0)
  end
  begin
     id 24 
     name rclavicle
     direction -0.909391 0.383475 -0.161107   
     length 3.25176  
     axis 0 0 0   XYZ 
    dof ry rz
    limits (-10.0 20.0)
           (-20.0 0.0)
  end
  begin
     id 25 
     name rhumerus
     direction -1 -4.48965e-011 -1.81384e-027  
     length 5.6595   
     axis 180 30 90   XYZ
    dof rx ry rz
    limits (-90.0 60.0)
           (-90.0 90.0)
           (-90.0 90.0)
  end
  begin
     id 26 
     name rradius
     direction -1 -4.48996e-011 -8.09397e-027   
     length 3.37604   
     axis 180 30 90   XYZ
    dof rx
    limits (-10.0 170.0)
  end
  begin
     id 27 
     name rwrist
     direction -1 -4.48927e-011 -1.56669e-026   
     length 1.68802   
     axis 1.21142e-014 -90 -90   XYZ
    dof ry
    limits (-180.0 0.0)
  end
  begin
     id 28
     name rhand
     direction -1 -4.48912e-011 -3.13339e-026   
     length 0.824702   
     axis 1.99937e-014 -90 -90   XYZ
    dof rx rz
    limits (-90.0 90.0)
           (-45.0 45.0)
  end
  begin
     id 29
     name rfingers
     direction -1 -4.49011e-011 -6.26677e-026   
     length 0.664896   
     axis 3.99874e-014 -90 -90   XYZ
    dof rx
    limits (0.0 90.0)
  end
  begin
     id 30
     name rthumb
     direction -0.707107 -6.34931e-011 0.707107   
     length 0.954662   
     axis -90 -45 -2.85299e-015   XYZ
    dof rx rz
    limits (-45.0 45.0)
           (-45.0 45.0)
  end
:hierarchy
  begin
    root lhipjoint rhipjoint lowerback
    lhipjoint lfemur
    lfemur ltibia
    ltibia lfoot
    lfoot ltoes
    rhipjoint rfemur
    rfemur rtibia
    rtibia rfoot
    rfoot rtoes
    lowerback upperback
    upperback thorax
    thorax lowerneck lclavicle rclavicle
    lowerneck upperneck
    upperneck head
    lclavicle lhumerus
    lhumerus lradius
    lradius lwrist
    lwrist lhand lthumb
    lhand lfingers
    rclavicle rhumerus
    rhumerus rradius
    rradius rwrist
    rwrist rhand rthumb
    rhand rfingers
  end

#!OML:ASF F:\VICON\USERDATA\INSTALL\rory3\rory3.ASF
:FULLY-SPECIFIED
:DEGREES
212
root 8.78846 17.1753 9.08183 0.0695581 18.6533 -1.12897
lowerback 12.0702 -2.32055 0.208889
upperback -1.77933 -2.50868 6.34705
thorax -8.42997 -1.04208 7.21374
lowerneck -6.46523 -8.56227 -14.4382
upperneck 16.5463 -12.0432 12.3022
head 7.78063 -5.74412 5.27101
rclavicle -3.08116e-015 1.11319e-014
rhumerus -29.9633 -16.4193 -56.9717
rradius 51.8431
rwrist -21.5337
rhand -16.2875 16.3251
rfingers 7.12502
rthumb 9.92283 -13.421
lclavicle -3.08116e-015 1.11319e-014
lhumerus -5.017 -17.2755 86.811
lradius 41.3678
lwrist -11.9815
lhand -8.54197 36.9566
lfingers 7.12502
lthumb 17.3873 66.1989
rfemur -29.2071 -3.4378 20.2463
rtibia 45.6757
rfoot -12.973 -11.9873
rtoes 25.4003
lfemur -22.926 0.967712 -8.63769
ltibia 53.0582
lfoot -18.3642 0.107975
ltoes -8.47507
213
root 8.86651 17.2067 9.10799 0.438477 18.3069 -0.691902
lowerback 11.9127 -2.10968 -0.263301
upperback -1.87791 -2.31595 6.1766
thorax -8.45687 -0.928959 7.25754
lowerneck -5.16711 -8.32149 -14.7834
upperneck 15.6703 -11.8573 12.8933
head 7.29403 -5.68894 5.59481
rclavicle -1.18277e-014 1.90833e-014
rhumerus -29.4944 -15.6534 -56.9094
rradius 54.3168
rwrist -22.9559
rhand -17.0699 15.9164
rfingers 7.12502
rthumb 9.16793 -13.8643
lclavicle -1.18277e-014 1.90833e-014
lhumerus -5.39321 -11.7773 85.8517
lradius 39.228
lwrist -13.9708
lhand -11.6839 35.8285
lfingers 7.12502
lthumb 14.3616 65.3118
rfemur -29.0514 -2.83186 19.5377
rtibia 45.2129
rfoot -12.7594 -12.164
rtoes 25.6427
lfemur -22.5209 -0.648683 -8.41867
ltibia 50.3599
lfoot -17.4103 0.945495
ltoes -7.96402
214
root 8.96133 17.2368 9.13723 0.639032 17.9654 -0.439404
lowerback 11.6966 -1.92751 -0.403353
upperback -1.91096 -2.11356 6.01162
thorax -8.39341 -0.83051 7.10647
lowerneck -4.80118 -8.23816 -14.923
upperneck 15.5931 -11.7976 13.0737
head 7.21439 -5.67091 5.69978
rclavicle 3.67752e-015 3.18055e-014
rhumerus -29.0152 -15.2538 -56.6182
rradius 56.3
rwrist -23.1473
rhand -16.696 16.1021
rfingers 7.12502
rthumb 9.5287 -13.6624
lclavicle 3.67752e-015 3.18055e-014
lhumerus -5.50079 -5.94844 84.7801
lradius 36.9431
lwrist -15.8251
lhand -12.598 35.726
lfingers 7.12502
lthumb 13.4806 65.2697
rfemur -28.735 -2.59203 18.9798
rtibia 44.7403
rfoot -12.607 -12.0559
rtoes 25.8954
lfemur -21.8627 -2.43816 -8.07134
ltibia 47.6964
lfoot -16.3768 1.16099
ltoes -6.80784
215
root 9.06079 17.2623 9.16983 0.59768 17.4915 -0.559276
lowerback 11.526 -1.78437 -0.157358
upperback -1.90735 -1.89958 5.91107
thorax -8.32789 -0.743405 6.80371
lowerneck -4.7736 -8.17543 -14.9559
upperneck 15.7984 -11.7372 13.1122
head 7.27037 -5.64152 5.72888
rclavicle -1.3418e-014 9.54166e-014
rhumerus -28.4625 -14.7665 -56.4691
rradius 58.2104
rwrist -23.3669
rhand -16.5936 16.1519
rfingers 7.12502
rthumb 9.62742 -13.6081
lclavicle -1.3418e-014 9.54166e-014
lhumerus -5.69231 0.194605 83.4627
lradius 34.8297
lwrist -17.3706
lhand -12.9516 36.3152
lfingers 7.12502
lthumb 13.1399 65.8812
rfemur -28.3127 -2.37848 18.8055
rtibia 44.3478
rfoot -12.6275 -11.8017
rtoes 25.9902
lfemur -21.069 -4.26859 -7.36256
ltibia 45.176
lfoot -15.2427 1.12751
ltoes -6.17636
